<svg xmlns="http://www.w3.org/2000/svg" xmlns:xlink="http://www.w3.org/1999/xlink" width="1360" height="1151" viewBox="0 0 1360 1151"><defs><linearGradient id="a" x1="0.5" x2="0.5" y2="1" gradientUnits="objectBoundingBox"><stop offset="0" stop-color="#fff"/><stop offset="1" stop-color="#f5f5f5"/></linearGradient></defs><path d="M0,0H1360a0,0,0,0,1,0,0V1081a6,6,0,0,1-6,6H6a6,6,0,0,1-6-6V0A0,0,0,0,1,0,0Z" transform="translate(0 64)" fill="#fff"/><path d="M6,0H1354a6,6,0,0,1,6,6V88a0,0,0,0,1,0,0H0a0,0,0,0,1,0,0V6A6,6,0,0,1,6,0Z" fill="url(#a)"/><path d="M24.992,30,14.688,6.064h-4.16L.256,30H5.664l1.984-4.608H17.6L19.552,30ZM9.408,21.36l3.232-7.648,3.232,7.648ZM35.68,13.136a5,5,0,0,0-4.448,2.016v-1.7H26.816V30h4.672V20.816a3.03,3.03,0,0,1,3.072-3.328c1.792,0,2.912,1.184,2.912,3.3V30h4.672V19.888C42.144,15.6,39.488,13.136,35.68,13.136Zm15.9,4.352h3.9V13.456H51.616l.032-5.472H46.976l-.032,5.472H43.9v4.032h3.008l-.032,7.264c-.032,3.84,2.432,5.568,6.016,5.568a15.559,15.559,0,0,0,2.592-.192v-4.16a6.908,6.908,0,0,1-1.44.16,2.282,2.282,0,0,1-2.5-2.5Zm21.888,5.728V21.36c0-5.152-3.136-8.224-7.9-8.224-4.928,0-8.416,3.264-8.416,8.608,0,5.312,3.488,8.608,8.544,8.608,3.872,0,7.04-2.24,7.616-5.376l-4.7-.224c-.352,1.152-1.408,1.824-3.04,1.824a3.234,3.234,0,0,1-3.456-3.36Zm-7.936-6.432c2.112,0,3.136,1.312,3.232,3.328H62.112A3.232,3.232,0,0,1,65.536,16.784ZM78.784,5.232A2.814,2.814,0,0,0,76,8.048a2.8,2.8,0,0,0,5.6,0A2.8,2.8,0,0,0,78.784,5.232ZM81.12,30V13.456H76.448V30ZM89.7,30V5.136H85.024V30Zm21.7-14.144,8.224-9.792H113.28l-8.128,9.888V6.064h-4.96V30h4.96V23.376l2.944-3.552L114.752,30h5.824Zm25.536,7.36V21.36c0-5.152-3.136-8.224-7.9-8.224-4.928,0-8.416,3.264-8.416,8.608,0,5.312,3.488,8.608,8.544,8.608,3.872,0,7.04-2.24,7.616-5.376l-4.7-.224c-.352,1.152-1.408,1.824-3.04,1.824a3.234,3.234,0,0,1-3.456-3.36Zm-7.936-6.432c2.112,0,3.136,1.312,3.232,3.328h-6.656A3.232,3.232,0,0,1,128.992,16.784Zm15.36,21.376,10.592-24.7H149.76l-3.776,9.856-3.808-9.856h-5.152l6.464,15.072-4.224,9.632ZM174.976,30l6.368-16.544h-5.12l-3.232,9.472-3.424-9.472H166.3l-3.392,9.472-3.232-9.472h-5.12L160.9,30h3.712l3.328-8.768L171.264,30Zm15.168-16.864c-5.056,0-8.8,3.392-8.8,8.608,0,5.184,3.744,8.608,8.8,8.608s8.8-3.424,8.8-8.608C198.944,16.528,195.2,13.136,190.144,13.136Zm0,4c2.4,0,4.064,1.7,4.064,4.608,0,2.88-1.664,4.576-4.064,4.576s-4.064-1.7-4.064-4.576C186.08,18.832,187.744,17.136,190.144,17.136Zm20.832-3.84c-2.528,0-3.84.96-4.544,2.048V13.456H201.92V30h4.672V21.616c0-2.272,1.7-3.808,4.384-3.808ZM229.6,30V5.136h-4.64V14.9a6.192,6.192,0,0,0-4.672-1.76c-4.672,0-7.968,3.392-7.968,8.608,0,5.184,3.3,8.608,7.968,8.608a6.145,6.145,0,0,0,4.928-2.048V30Zm-8.544-12.864c2.3,0,3.9,1.568,3.9,4.224V22.1c0,2.688-1.6,4.224-3.9,4.224-2.336,0-4-1.632-4-4.576S218.72,17.136,221.056,17.136Zm18.112-4c-4.16,0-6.624,2.048-6.624,5.216,0,3.392,2.336,4.128,5.856,5.024,2.4.576,3.008.9,3.008,1.888,0,.96-.8,1.5-2.08,1.5-1.6,0-2.336-.832-2.4-2.048l-4.672.256c.352,3.456,2.816,5.376,7.04,5.376,4.32,0,6.784-2.144,6.784-5.5,0-3.008-2.336-4.032-5.632-4.9-1.984-.512-3.232-.672-3.232-1.824,0-.9.64-1.408,1.888-1.408a1.91,1.91,0,0,1,2.112,2.016l4.64-.256C245.568,15.408,243.36,13.136,239.168,13.136Zm35.328,0a5.7,5.7,0,0,0-5.088,2.624,5.872,5.872,0,0,0-5.184-2.624,4.772,4.772,0,0,0-4.352,2.016v-1.7h-4.416V30h4.672V20.816c0-1.984,1.12-3.328,2.976-3.328,1.7,0,2.688,1.184,2.688,3.3V30h4.672V20.24a2.8,2.8,0,0,1,2.88-2.752c1.792,0,2.752,1.184,2.752,3.3V30h4.672V19.856C280.768,15.664,278.272,13.136,274.5,13.136Zm12.32-7.9a2.814,2.814,0,0,0-2.784,2.816,2.8,2.8,0,0,0,5.6,0A2.8,2.8,0,0,0,286.816,5.232ZM289.152,30V13.456H284.48V30Zm9.632-12.512h3.9V13.456h-3.872l.032-5.472h-4.672l-.032,5.472H291.1v4.032h3.008l-.032,7.264c-.032,3.84,2.432,5.568,6.016,5.568a15.559,15.559,0,0,0,2.592-.192v-4.16a6.908,6.908,0,0,1-1.44.16,2.282,2.282,0,0,1-2.5-2.5Zm32-4.352A5.7,5.7,0,0,0,325.7,15.76a5.872,5.872,0,0,0-5.184-2.624,4.772,4.772,0,0,0-4.352,2.016v-1.7h-4.416V30h4.672V20.816c0-1.984,1.12-3.328,2.976-3.328,1.7,0,2.688,1.184,2.688,3.3V30h4.672V20.24a2.8,2.8,0,0,1,2.88-2.752c1.792,0,2.752,1.184,2.752,3.3V30h4.672V19.856C337.056,15.664,334.56,13.136,330.784,13.136Zm25.408,10.08V21.36c0-5.152-3.136-8.224-7.9-8.224-4.928,0-8.416,3.264-8.416,8.608,0,5.312,3.488,8.608,8.544,8.608,3.872,0,7.04-2.24,7.616-5.376l-4.7-.224c-.352,1.152-1.408,1.824-3.04,1.824a3.234,3.234,0,0,1-3.456-3.36Zm-7.936-6.432c2.112,0,3.136,1.312,3.232,3.328h-6.656A3.232,3.232,0,0,1,348.256,16.784ZM363.84,5.136h-4.672V30h4.672V20.816a3.03,3.03,0,0,1,3.072-3.328c1.792,0,2.912,1.184,2.912,3.3V30H374.5V19.888c0-4.288-2.656-6.752-6.464-6.752a5.114,5.114,0,0,0-4.192,1.728ZM387.2,13.3c-2.528,0-3.84.96-4.544,2.048V13.456h-4.512V30h4.672V21.616c0-2.272,1.7-3.808,4.384-3.808Zm8.9-7.232V30h9.824c6.816,0,11.9-4.448,11.9-11.968S412.768,6.064,405.952,6.064Zm4.928,4.224h4.96c4.192,0,6.944,2.592,6.944,7.744s-2.784,7.744-6.944,7.744h-4.96Zm35.36,12.928V21.36c0-5.152-3.136-8.224-7.9-8.224-4.928,0-8.416,3.264-8.416,8.608,0,5.312,3.488,8.608,8.544,8.608,3.872,0,7.04-2.24,7.616-5.376l-4.7-.224c-.352,1.152-1.408,1.824-3.04,1.824a3.234,3.234,0,0,1-3.456-3.36Zm-7.936-6.432c2.112,0,3.136,1.312,3.232,3.328h-6.656A3.232,3.232,0,0,1,428.448,16.784Zm16.576-3.648c-4.16,0-6.624,2.048-6.624,5.216,0,3.392,2.336,4.128,5.856,5.024,2.4.576,3.008.9,3.008,1.888,0,.96-.8,1.5-2.08,1.5-1.6,0-2.336-.832-2.4-2.048l-4.672.256c.352,3.456,2.816,5.376,7.04,5.376,4.32,0,6.784-2.144,6.784-5.5,0-3.008-2.336-4.032-5.632-4.9-1.984-.512-3.232-.672-3.232-1.824,0-.9.64-1.408,1.888-1.408a1.91,1.91,0,0,1,2.112,2.016l4.64-.256C451.424,15.408,449.216,13.136,445.024,13.136Zm14.464,6.208V5.136h-4.672V30h4.672V25.616l1.472-1.6L465.28,30h5.664l-6.688-9.472,6.24-7.072h-5.664Zm18.944-1.856h3.9V13.456h-3.872l.032-5.472h-4.672l-.032,5.472h-3.04v4.032h3.008l-.032,7.264c-.032,3.84,2.432,5.568,6.016,5.568a15.559,15.559,0,0,0,2.592-.192v-4.16a6.908,6.908,0,0,1-1.44.16,2.282,2.282,0,0,1-2.5-2.5ZM492.8,13.136c-5.056,0-8.8,3.392-8.8,8.608,0,5.184,3.744,8.608,8.8,8.608s8.8-3.424,8.8-8.608C501.6,16.528,497.856,13.136,492.8,13.136Zm0,4c2.4,0,4.064,1.7,4.064,4.608,0,2.88-1.664,4.576-4.064,4.576s-4.064-1.7-4.064-4.576C488.736,18.832,490.4,17.136,492.8,17.136Zm21.088-4a6.023,6.023,0,0,0-4.9,2.048V13.456h-4.416v24.7h4.672V28.592a6.289,6.289,0,0,0,4.64,1.76c4.7,0,8-3.424,8-8.608S518.592,13.136,513.888,13.136Zm-.736,4c2.336,0,4,1.664,4,4.608s-1.664,4.608-4,4.608c-2.3,0-3.9-1.568-3.9-4.224V21.36C509.248,18.7,510.848,17.136,513.152,17.136Zm21.024,15.008L542.3,6.064H537.44l-8.16,26.08ZM577.024,30V6.064h-4.352L563.9,22.512,555.072,6.064h-4.384V30h4.96V17.072l6.624,12.672h3.264l6.592-12.672V30Zm11.9-16.864c-5.056,0-8.8,3.392-8.8,8.608,0,5.184,3.744,8.608,8.8,8.608s8.8-3.424,8.8-8.608C597.728,16.528,593.984,13.136,588.928,13.136Zm0,4c2.4,0,4.064,1.7,4.064,4.608,0,2.88-1.664,4.576-4.064,4.576s-4.064-1.7-4.064-4.576C584.864,18.832,586.528,17.136,588.928,17.136Zm16.448-12H600.7V30h4.416V28.3a6.121,6.121,0,0,0,4.9,2.048c4.7,0,8-3.424,8-8.608,0-5.216-3.3-8.608-8-8.608a6.165,6.165,0,0,0-4.64,1.76Zm3.9,12c2.336,0,4,1.664,4,4.608s-1.664,4.576-4,4.576c-2.3,0-3.9-1.536-3.9-4.224V21.36C605.376,18.7,606.976,17.136,609.28,17.136Zm14.048-11.9a2.814,2.814,0,0,0-2.784,2.816,2.8,2.8,0,0,0,5.6,0A2.8,2.8,0,0,0,623.328,5.232ZM625.664,30V13.456h-4.672V30Zm8.576,0V5.136h-4.672V30Zm19.328-6.784V21.36c0-5.152-3.136-8.224-7.9-8.224-4.928,0-8.416,3.264-8.416,8.608,0,5.312,3.488,8.608,8.544,8.608,3.872,0,7.04-2.24,7.616-5.376l-4.7-.224c-.352,1.152-1.408,1.824-3.04,1.824a3.234,3.234,0,0,1-3.456-3.36Zm-7.936-6.432c2.112,0,3.136,1.312,3.232,3.328h-6.656A3.232,3.232,0,0,1,645.632,16.784Zm20.16,7.008V19.44H655.68v4.352Zm11.2-18.08c-5.728,0-8.512,3.392-8.512,7.328,0,4.64,3.584,5.888,7.9,6.976,3.2.8,4.928,1.472,4.928,3.3,0,1.952-1.568,2.752-3.776,2.752-2.592,0-4.48-1.472-4.576-3.648l-5.024.256c.064,4.96,4.064,7.68,9.6,7.68,4.8,0,8.8-2.24,8.8-7.328,0-4.256-3.232-5.792-8.128-7.04-3.3-.768-4.672-1.28-4.672-3.1,0-1.7,1.28-2.88,3.552-2.88s3.68,1.312,3.712,3.328l5.056-.256C685.728,8.464,682.176,5.712,676.992,5.712ZM703.936,30V13.456h-4.672V22.8c0,1.856-1.024,3.2-2.816,3.2-1.824,0-2.656-1.12-2.656-3.136V13.456H689.12v10.4c0,4.032,2.3,6.5,6.112,6.5a4.73,4.73,0,0,0,4.288-2.016V30Zm11.456-16.864c-4.9,0-8.48,3.168-8.48,8.608,0,5.408,3.616,8.608,8.48,8.608,4.064,0,7.2-2.4,7.84-6.3l-4.544-.416a3.07,3.07,0,0,1-3.3,2.688c-2.176,0-3.744-1.664-3.744-4.576,0-2.944,1.568-4.608,3.744-4.608a3.09,3.09,0,0,1,3.264,2.784l4.576-.384C722.624,15.536,719.424,13.136,715.392,13.136Zm15.3-8h-4.672V30h4.672V20.816a3.03,3.03,0,0,1,3.072-3.328c1.792,0,2.912,1.184,2.912,3.3V30h4.672V19.888c0-4.288-2.656-6.752-6.464-6.752a5.114,5.114,0,0,0-4.192,1.728Zm29.728,18.08V21.36c0-5.152-3.136-8.224-7.9-8.224-4.928,0-8.416,3.264-8.416,8.608,0,5.312,3.488,8.608,8.544,8.608,3.872,0,7.04-2.24,7.616-5.376l-4.7-.224c-.352,1.152-1.408,1.824-3.04,1.824a3.234,3.234,0,0,1-3.456-3.36Zm-7.936-6.432c2.112,0,3.136,1.312,3.232,3.328h-6.656A3.232,3.232,0,0,1,752.48,16.784Zm19.776-3.648a5,5,0,0,0-4.448,2.016v-1.7h-4.416V30h4.672V20.816a3.03,3.03,0,0,1,3.072-3.328c1.792,0,2.912,1.184,2.912,3.3V30h4.672V19.888C778.72,15.6,776.064,13.136,772.256,13.136Z" transform="translate(93 26)" fill="#00285a"/><line x2="1359.5" transform="translate(0.5 87.5)" fill="none" stroke="#e3e3e3" stroke-width="2"/><g transform="translate(1028 928)"><rect width="257" height="52" transform="translate(75 151)" fill="#fff"/><g transform="translate(66 151)"><path d="M87.056,45.443c0,3.458-3.332,6.665-9.683,6.665A18.539,18.539,0,0,1,69.2,50.221l1.509-2.641a14.128,14.128,0,0,0,6.79,1.7c3.018,0,4.9-1.257,4.9-3.269,0-1.509-1.132-2.515-3.71-3.018l-2.641-.629a7.92,7.92,0,0,1-4.778-2.515,4.5,4.5,0,0,1-1.006-3.018c0-3.647,3.458-6.162,8.425-6.162a15.572,15.572,0,0,1,7.859,2.012l-1.886,2.452a12.094,12.094,0,0,0-5.847-1.509c-2.452,0-4.024,1.132-4.024,2.829,0,1.32.88,1.949,3.269,2.578l2.955.692C84.541,40.413,87.056,42.3,87.056,45.443Zm26.533-5.91-2.955-.692c-2.452-.629-3.269-1.257-3.269-2.578,0-1.7,1.635-2.829,4.024-2.829a11.918,11.918,0,0,1,5.847,1.509l1.886-2.452a15.463,15.463,0,0,0-7.859-1.886c-4.967,0-8.425,2.515-8.425,6.162a4.29,4.29,0,0,0,1.006,3.018,7.909,7.909,0,0,0,4.841,2.515l2.641.629c2.578.566,3.71,1.509,3.71,3.018,0,2.075-1.823,3.269-4.9,3.269a14.822,14.822,0,0,1-6.728-1.7l-1.509,2.641a18.342,18.342,0,0,0,8.174,1.886c6.35,0,9.683-3.207,9.683-6.665C119.688,42.3,117.173,40.413,113.59,39.533ZM92.527,51.668h4.213V30.919H92.527Zm29.3-17.919h6.287V51.668h4.15V33.811h6.225l.566-2.892H121.889v2.829Zm60.8,6.539,6.287-9.431h-4.9l-3.9,6.476-3.961-6.413h-5.03l6.665,9.62L170.177,51.73h5.093l4.967-8.237,5.156,8.237h4.9ZM154.835,46.7l3.647,4.967h-4.9l-2.138-3.207a23.639,23.639,0,0,0-4.213-5.156,2.227,2.227,0,0,0-1.635-.629V51.73h-4.087V30.919h7.608c5.533,0,8.111,2.7,8.111,5.973a5.742,5.742,0,0,1-5.722,5.722h-.44A16.7,16.7,0,0,1,154.835,46.7Zm-3.018-7.293a3.256,3.256,0,0,0,1.132-2.515c0-2.138-1.383-3.207-5.03-3.207h-2.326v6.6h2.138a6.4,6.4,0,0,0,4.087-.88ZM162.946,51.73h4.213V30.919h-4.275Zm75.324,15.4L226.009,54.874a17.341,17.341,0,1,1,3.018-3.081l12.323,12.323ZM215.384,55.063a13.77,13.77,0,1,0-13.77-13.77,13.766,13.766,0,0,0,13.77,13.77Z" transform="translate(-9.2 -24.177)" fill="#eee"/></g></g><path d="M31.563,27.669l-6.231-6.231A1.5,1.5,0,0,0,24.269,21H23.25A12.994,12.994,0,1,0,21,23.25v1.019a1.5,1.5,0,0,0,.438,1.063l6.231,6.231a1.494,1.494,0,0,0,2.119,0l1.769-1.769A1.507,1.507,0,0,0,31.563,27.669ZM13,21a8,8,0,1,1,8-8A8,8,0,0,1,13,21Z" transform="translate(32 29)" fill="#1269d3"/><g transform="translate(2.5 -4.5)"><line x1="83" transform="translate(418.5 285.5)" fill="none" stroke="#bbb" stroke-width="2"/><line x1="96" transform="translate(398 869.5)" fill="none" stroke="#bbb" stroke-width="2"/><path d="M17.008,24.389a6.064,6.064,0,0,1-2.823,2.167,11.4,11.4,0,0,1-4.218.718,8.18,8.18,0,0,1-4.32-1.142,7.606,7.606,0,0,1-2.919-3.247A11.215,11.215,0,0,1,1.668,18V16.268q0-4.5,2.1-6.973a7.313,7.313,0,0,1,5.9-2.475,7.553,7.553,0,0,1,5.018,1.593,6.939,6.939,0,0,1,2.324,4.519H14.383a4.34,4.34,0,0,0-4.7-3.965,4.647,4.647,0,0,0-4,1.854,9.053,9.053,0,0,0-1.374,5.371V17.82a8.484,8.484,0,0,0,1.531,5.33A4.963,4.963,0,0,0,9.98,25.127a9.15,9.15,0,0,0,2.584-.327,4,4,0,0,0,1.832-1.1v-4.46H9.789V17.088h7.219ZM23.734,27H21.205V6h2.529Zm10.186.273A6.463,6.463,0,0,1,29.025,25.3a7.332,7.332,0,0,1-1.887-5.284v-.465a8.877,8.877,0,0,1,.841-3.931,6.559,6.559,0,0,1,2.352-2.707,5.912,5.912,0,0,1,3.274-.978,5.54,5.54,0,0,1,4.484,1.9,8.228,8.228,0,0,1,1.6,5.441v1.053H29.668a5.258,5.258,0,0,0,1.278,3.534,4.018,4.018,0,0,0,3.11,1.347,4.405,4.405,0,0,0,2.27-.547,5.7,5.7,0,0,0,1.627-1.449l1.545,1.2A6.212,6.212,0,0,1,33.92,27.273Zm-.314-13.262a3.374,3.374,0,0,0-2.57,1.114A5.416,5.416,0,0,0,29.75,18.25h7.41v-.191a4.817,4.817,0,0,0-1.039-2.987A3.176,3.176,0,0,0,33.605,14.012ZM45.363,27H42.834V12.207h2.529ZM42.629,8.283A1.51,1.51,0,0,1,43,7.244a1.412,1.412,0,0,1,1.114-.424,1.434,1.434,0,0,1,1.121.424,1.494,1.494,0,0,1,.383,1.039,1.445,1.445,0,0,1-.383,1.025,1.46,1.46,0,0,1-1.121.41A1.437,1.437,0,0,1,43,9.309,1.46,1.46,0,0,1,42.629,8.283ZM55.344,25.209a3.643,3.643,0,0,0,2.365-.82,2.886,2.886,0,0,0,1.121-2.051h2.393a4.587,4.587,0,0,1-.875,2.42,5.763,5.763,0,0,1-2.153,1.832,6.213,6.213,0,0,1-2.851.684,6.094,6.094,0,0,1-4.806-2.017,8.032,8.032,0,0,1-1.784-5.517v-.424a8.906,8.906,0,0,1,.793-3.842,6.04,6.04,0,0,1,2.276-2.611,6.466,6.466,0,0,1,3.507-.93,5.933,5.933,0,0,1,4.136,1.49,5.326,5.326,0,0,1,1.757,3.869H58.83a3.486,3.486,0,0,0-1.087-2.358,3.381,3.381,0,0,0-2.413-.923A3.54,3.54,0,0,0,52.343,15.4a6.517,6.517,0,0,0-1.06,4.013v.479a6.387,6.387,0,0,0,1.053,3.938A3.557,3.557,0,0,0,55.344,25.209ZM66.6,14a5.378,5.378,0,0,1,4.375-2.064q4.689,0,4.73,5.291V27H73.172V17.211a3.405,3.405,0,0,0-.731-2.365,2.931,2.931,0,0,0-2.235-.766,3.65,3.65,0,0,0-2.16.656A4.456,4.456,0,0,0,66.6,16.459V27H64.066V6H66.6ZM79.406,25.674a1.584,1.584,0,0,1,.39-1.094,1.485,1.485,0,0,1,1.169-.437,1.529,1.529,0,0,1,1.183.438,1.552,1.552,0,0,1,.4,1.094,1.468,1.468,0,0,1-.4,1.053,1.557,1.557,0,0,1-1.183.424,1.406,1.406,0,0,1-1.559-1.477ZM79.42,13.6a1.584,1.584,0,0,1,.39-1.094,1.485,1.485,0,0,1,1.169-.437,1.529,1.529,0,0,1,1.183.438,1.552,1.552,0,0,1,.4,1.094,1.468,1.468,0,0,1-.4,1.053,1.557,1.557,0,0,1-1.183.424A1.406,1.406,0,0,1,79.42,13.6Z" transform="translate(261 268.5)" fill="#111"/><path d="M14.875,2.5H2.625A2.626,2.626,0,0,0,0,5.125v22.75A2.626,2.626,0,0,0,2.625,30.5h12.25A2.626,2.626,0,0,0,17.5,27.875V5.125A2.626,2.626,0,0,0,14.875,2.5ZM8.75,28.75A1.75,1.75,0,1,1,10.5,27,1.748,1.748,0,0,1,8.75,28.75Zm6.125-5.906a.658.658,0,0,1-.656.656H3.281a.658.658,0,0,1-.656-.656V5.781a.658.658,0,0,1,.656-.656H14.219a.658.658,0,0,1,.656.656ZM37.064,7.094l6.508,16.242L50.08,7.094h3.4V27H50.859V19.248l.246-8.367L44.57,27h-2.01L36.039,10.922l.26,8.326V27H33.674V7.094ZM57.053,19.467a8.738,8.738,0,0,1,.854-3.91,6.374,6.374,0,0,1,2.379-2.68,6.476,6.476,0,0,1,3.479-.943,6.238,6.238,0,0,1,4.888,2.092A8.048,8.048,0,0,1,70.52,19.59v.178a8.814,8.814,0,0,1-.827,3.876,6.281,6.281,0,0,1-2.365,2.673,6.55,6.55,0,0,1-3.534.957,6.223,6.223,0,0,1-4.874-2.092,8.007,8.007,0,0,1-1.866-5.537Zm2.543.3a6.329,6.329,0,0,0,1.142,3.951,3.869,3.869,0,0,0,6.118-.021,6.92,6.92,0,0,0,1.135-4.231,6.318,6.318,0,0,0-1.155-3.944,3.673,3.673,0,0,0-3.069-1.511,3.632,3.632,0,0,0-3.021,1.49A6.869,6.869,0,0,0,59.6,19.768Zm26.619,0a8.8,8.8,0,0,1-1.559,5.448,4.98,4.98,0,0,1-4.184,2.058,5.157,5.157,0,0,1-4.334-1.982L76.016,27H73.691V6h2.529v7.834a5.128,5.128,0,0,1,4.225-1.9,5.01,5.01,0,0,1,4.231,2.037,9.06,9.06,0,0,1,1.538,5.578Zm-2.529-.287a6.835,6.835,0,0,0-1-3.992,3.3,3.3,0,0,0-2.871-1.408,3.713,3.713,0,0,0-3.6,2.324v6.4a3.817,3.817,0,0,0,3.623,2.324,3.286,3.286,0,0,0,2.83-1.408A7.268,7.268,0,0,0,83.686,19.48ZM92.148,27H89.619V12.207h2.529ZM89.414,8.283a1.51,1.51,0,0,1,.376-1.039A1.412,1.412,0,0,1,90.9,6.82a1.434,1.434,0,0,1,1.121.424,1.494,1.494,0,0,1,.383,1.039,1.445,1.445,0,0,1-.383,1.025,1.46,1.46,0,0,1-1.121.41,1.437,1.437,0,0,1-1.114-.41A1.46,1.46,0,0,1,89.414,8.283ZM98.943,27H96.414V6h2.529Zm10.186.273a6.463,6.463,0,0,1-4.895-1.976,7.332,7.332,0,0,1-1.887-5.284v-.465a8.877,8.877,0,0,1,.841-3.931,6.559,6.559,0,0,1,2.352-2.707,5.912,5.912,0,0,1,3.274-.978,5.54,5.54,0,0,1,4.484,1.9,8.228,8.228,0,0,1,1.6,5.441v1.053H104.877a5.258,5.258,0,0,0,1.278,3.534,4.018,4.018,0,0,0,3.11,1.347,4.405,4.405,0,0,0,2.27-.547,5.7,5.7,0,0,0,1.627-1.449l1.545,1.2A6.212,6.212,0,0,1,109.129,27.273Zm-.314-13.262a3.374,3.374,0,0,0-2.57,1.114,5.416,5.416,0,0,0-1.285,3.124h7.41v-.191a4.817,4.817,0,0,0-1.039-2.987A3.176,3.176,0,0,0,108.814,14.012Zm8.928,11.662a1.584,1.584,0,0,1,.39-1.094,1.485,1.485,0,0,1,1.169-.437,1.529,1.529,0,0,1,1.183.438,1.552,1.552,0,0,1,.4,1.094,1.468,1.468,0,0,1-.4,1.053,1.557,1.557,0,0,1-1.183.424,1.406,1.406,0,0,1-1.559-1.477Zm.014-12.072a1.584,1.584,0,0,1,.39-1.094,1.485,1.485,0,0,1,1.169-.437,1.529,1.529,0,0,1,1.183.438,1.552,1.552,0,0,1,.4,1.094,1.468,1.468,0,0,1-.4,1.053,1.557,1.557,0,0,1-1.183.424,1.406,1.406,0,0,1-1.559-1.477Z" transform="translate(177.5 852.5)" fill="#111"/><path d="M2.816,17.02,3.828,7.094h10.2V9.432H5.975l-.6,5.428A6.424,6.424,0,0,1,8.7,14a5.492,5.492,0,0,1,4.32,1.8,7.046,7.046,0,0,1,1.6,4.86A6.8,6.8,0,0,1,12.954,25.5a6.054,6.054,0,0,1-4.642,1.771,6.292,6.292,0,0,1-4.307-1.463,5.839,5.839,0,0,1-1.9-4.047H4.5a4.017,4.017,0,0,0,1.217,2.577,3.783,3.783,0,0,0,2.6.868,3.413,3.413,0,0,0,2.769-1.2,5.03,5.03,0,0,0,1-3.322A4.616,4.616,0,0,0,11,17.478a3.7,3.7,0,0,0-2.892-1.21,4.17,4.17,0,0,0-2.6.725l-.67.547ZM27.3,7.08V9.227h-.465a6.66,6.66,0,0,0-4.7,1.75,7.282,7.282,0,0,0-2.023,4.771,5.4,5.4,0,0,1,4.293-1.8,5.162,5.162,0,0,1,4.149,1.832,7.066,7.066,0,0,1,1.552,4.73,7.044,7.044,0,0,1-1.675,4.922,5.767,5.767,0,0,1-4.491,1.846A5.682,5.682,0,0,1,19.3,25.079a8.7,8.7,0,0,1-1.777-5.653v-.971q0-5.5,2.345-8.4T26.852,7.08ZM23.98,16.049a4.251,4.251,0,0,0-3.91,2.734v.93a6.53,6.53,0,0,0,1.107,3.965,3.319,3.319,0,0,0,2.762,1.5,3.216,3.216,0,0,0,2.687-1.258,5.219,5.219,0,0,0,.978-3.295,5.221,5.221,0,0,0-.991-3.315A3.177,3.177,0,0,0,23.98,16.049Zm9.3,14.916-1.436-.984a6.6,6.6,0,0,0,1.34-3.691V24.006h2.475v1.982a6.227,6.227,0,0,1-.677,2.762A6.466,6.466,0,0,1,33.277,30.965ZM48.289,18.25A6.189,6.189,0,0,1,46.4,19.768a5.137,5.137,0,0,1-2.413.574,5.3,5.3,0,0,1-3-.848,5.511,5.511,0,0,1-1.976-2.386,8.133,8.133,0,0,1-.7-3.4,8.287,8.287,0,0,1,.759-3.6,5.574,5.574,0,0,1,2.153-2.447,6.14,6.14,0,0,1,3.254-.848A5.559,5.559,0,0,1,49.13,9.028a9.631,9.631,0,0,1,1.7,6.022v.738q0,5.811-2.3,8.483T41.6,27.014h-.492V24.867h.533a6.963,6.963,0,0,0,4.813-1.63A7,7,0,0,0,48.289,18.25Zm-3.9,0a3.906,3.906,0,0,0,2.345-.779A4.594,4.594,0,0,0,48.3,15.543V14.531a6.96,6.96,0,0,0-1.08-4.047,3.3,3.3,0,0,0-5.414-.28,5.273,5.273,0,0,0-1.012,3.37,5.488,5.488,0,0,0,.978,3.356A3.1,3.1,0,0,0,44.393,18.25ZM54.1,10.922a4.039,4.039,0,0,1,1.142-2.953,4.289,4.289,0,0,1,5.879.007A4.179,4.179,0,0,1,62.248,11v.971a3.987,3.987,0,0,1-1.142,2.946A3.936,3.936,0,0,1,58.2,16.063a4.022,4.022,0,0,1-2.939-1.142A4.071,4.071,0,0,1,54.1,11.879Zm1.887,1.047a2.587,2.587,0,0,0,.6,1.761,2.03,2.03,0,0,0,1.613.692,1.99,1.99,0,0,0,1.565-.671,2.672,2.672,0,0,0,.595-1.836v-1a2.652,2.652,0,0,0-.588-1.768,2.18,2.18,0,0,0-3.2,0,2.735,2.735,0,0,0-.588,1.823Zm7.807,10.15a4.016,4.016,0,0,1,1.142-2.946,4.318,4.318,0,0,1,5.872-.007,4.121,4.121,0,0,1,1.148,3.049v.971a4.016,4.016,0,0,1-1.142,2.946,3.928,3.928,0,0,1-2.919,1.155,4.022,4.022,0,0,1-2.939-1.142A4.071,4.071,0,0,1,63.793,23.1ZM65.68,23.18a2.607,2.607,0,0,0,.6,1.774,2.03,2.03,0,0,0,1.613.692,1.976,1.976,0,0,0,1.572-.678,2.718,2.718,0,0,0,.588-1.843V22.111a2.6,2.6,0,0,0-.595-1.768,2.186,2.186,0,0,0-3.172-.007,2.638,2.638,0,0,0-.608,1.829Zm-6.9,2.316-1.436-.9L67.061,9.035l1.436.9Z" transform="translate(309.5 852.5)" fill="#888"/><path d="M9.967,27H7.424V10.143l-5.1,1.873v-2.3L9.57,7h.4Zm8.572-9.98,1.012-9.926h10.2V9.432H21.7l-.6,5.428A6.424,6.424,0,0,1,24.418,14a5.492,5.492,0,0,1,4.32,1.8,7.046,7.046,0,0,1,1.6,4.86A6.8,6.8,0,0,1,28.677,25.5a6.054,6.054,0,0,1-4.642,1.771,6.292,6.292,0,0,1-4.307-1.463,5.839,5.839,0,0,1-1.9-4.047h2.393a4.017,4.017,0,0,0,1.217,2.577,3.783,3.783,0,0,0,2.6.868,3.413,3.413,0,0,0,2.769-1.2,5.03,5.03,0,0,0,1-3.322,4.616,4.616,0,0,0-1.087-3.206,3.7,3.7,0,0,0-2.892-1.21,4.17,4.17,0,0,0-2.6.725l-.67.547Zm14.342-6.1a4.039,4.039,0,0,1,1.142-2.953,4.289,4.289,0,0,1,5.879.007A4.179,4.179,0,0,1,41.029,11v.971a3.987,3.987,0,0,1-1.142,2.946,3.936,3.936,0,0,1-2.905,1.142,4.022,4.022,0,0,1-2.939-1.142,4.071,4.071,0,0,1-1.162-3.042Zm1.887,1.047a2.587,2.587,0,0,0,.6,1.761,2.03,2.03,0,0,0,1.613.692,1.99,1.99,0,0,0,1.565-.671,2.672,2.672,0,0,0,.595-1.836v-1a2.652,2.652,0,0,0-.588-1.768,2.18,2.18,0,0,0-3.2,0,2.735,2.735,0,0,0-.588,1.823Zm7.807,10.15a4.016,4.016,0,0,1,1.142-2.946,4.318,4.318,0,0,1,5.872-.007,4.121,4.121,0,0,1,1.148,3.049v.971a4.016,4.016,0,0,1-1.142,2.946,3.928,3.928,0,0,1-2.919,1.155,4.022,4.022,0,0,1-2.939-1.142A4.071,4.071,0,0,1,42.574,23.1Zm1.887,1.061a2.607,2.607,0,0,0,.6,1.774,2.03,2.03,0,0,0,1.613.692,1.976,1.976,0,0,0,1.572-.678,2.718,2.718,0,0,0,.588-1.843V22.111a2.6,2.6,0,0,0-.595-1.768,2.186,2.186,0,0,0-3.172-.007,2.638,2.638,0,0,0-.608,1.829Zm-6.9,2.316-1.436-.9L45.842,9.035l1.436.9Z" transform="translate(353.5 268.5)" fill="#888"/></g><g transform="translate(332 112)"><line x1="130.5" transform="translate(574 201.5)" fill="none" stroke="#bbb" stroke-width="2"/><path d="M28.875,2.5H2.625A2.626,2.626,0,0,0,0,5.125v15.75A2.626,2.626,0,0,0,2.625,23.5h26.25A2.626,2.626,0,0,0,31.5,20.875V5.125A2.626,2.626,0,0,0,28.875,2.5Zm-.328,18.375H2.953a.329.329,0,0,1-.328-.328V5.453a.329.329,0,0,1,.328-.328H28.547a.329.329,0,0,1,.328.328V20.547A.329.329,0,0,1,28.547,20.875Zm-2.3,8.313a1.309,1.309,0,0,0-1.312-1.312H19.545l-1.017-3.052a.654.654,0,0,0-.623-.448H13.6a.654.654,0,0,0-.623.448L11.96,27.875h-5.4a1.313,1.313,0,0,0,0,2.625H24.938A1.309,1.309,0,0,0,26.25,29.188ZM47.674,27V7.094h5.619a9.046,9.046,0,0,1,4.594,1.148A7.767,7.767,0,0,1,60.97,11.51a10.636,10.636,0,0,1,1.1,4.867v1.271a10.673,10.673,0,0,1-1.087,4.936,7.645,7.645,0,0,1-3.1,3.254A9.622,9.622,0,0,1,53.184,27ZM50.3,9.24V24.854h2.762a6.009,6.009,0,0,0,4.724-1.888,7.8,7.8,0,0,0,1.688-5.378V16.424a7.926,7.926,0,0,0-1.593-5.275A5.668,5.668,0,0,0,53.361,9.24ZM71.777,27.273A6.463,6.463,0,0,1,66.883,25.3,7.332,7.332,0,0,1,65,20.014v-.465a8.877,8.877,0,0,1,.841-3.931,6.559,6.559,0,0,1,2.352-2.707,5.912,5.912,0,0,1,3.274-.978,5.54,5.54,0,0,1,4.484,1.9,8.228,8.228,0,0,1,1.6,5.441v1.053H67.525A5.258,5.258,0,0,0,68.8,23.862a4.018,4.018,0,0,0,3.11,1.347,4.405,4.405,0,0,0,2.27-.547,5.7,5.7,0,0,0,1.627-1.449l1.545,1.2A6.212,6.212,0,0,1,71.777,27.273Zm-.314-13.262a3.374,3.374,0,0,0-2.57,1.114,5.416,5.416,0,0,0-1.285,3.124h7.41v-.191a4.817,4.817,0,0,0-1.039-2.987A3.176,3.176,0,0,0,71.463,14.012Zm17.623,9.064a1.862,1.862,0,0,0-.772-1.593,7.435,7.435,0,0,0-2.693-.978,12.734,12.734,0,0,1-3.049-.984A4.337,4.337,0,0,1,80.9,18.154a3.27,3.27,0,0,1-.54-1.887A3.837,3.837,0,0,1,81.9,13.191a6.007,6.007,0,0,1,3.931-1.258,6.181,6.181,0,0,1,4.081,1.3,4.125,4.125,0,0,1,1.565,3.322H88.936a2.283,2.283,0,0,0-.882-1.791,3.3,3.3,0,0,0-2.222-.752,3.458,3.458,0,0,0-2.16.6,1.894,1.894,0,0,0-.779,1.572,1.534,1.534,0,0,0,.725,1.381,8.915,8.915,0,0,0,2.618.889A13.642,13.642,0,0,1,89.3,19.467a4.477,4.477,0,0,1,1.743,1.415,3.479,3.479,0,0,1,.567,2.017,3.786,3.786,0,0,1-1.586,3.179,6.652,6.652,0,0,1-4.115,1.2,7.449,7.449,0,0,1-3.145-.629,5.114,5.114,0,0,1-2.14-1.757,4.234,4.234,0,0,1-.772-2.44h2.529a2.619,2.619,0,0,0,1.019,2.017,3.951,3.951,0,0,0,2.509.745,4.079,4.079,0,0,0,2.3-.581A1.785,1.785,0,0,0,89.086,23.076Zm9.953-2.926L97.453,21.8V27H94.924V6h2.529V18.7l1.354-1.627,4.607-4.867h3.076l-5.756,6.18L107.16,27h-2.967ZM112.533,8.625v3.582h2.762v1.955h-2.762v9.185a2.053,2.053,0,0,0,.369,1.335,1.554,1.554,0,0,0,1.258.445,6.124,6.124,0,0,0,1.2-.164V27a7.376,7.376,0,0,1-1.941.272,3.15,3.15,0,0,1-2.557-1.025A4.405,4.405,0,0,1,110,23.336V14.162h-2.693V12.207H110V8.625ZM117.3,19.467a8.737,8.737,0,0,1,.854-3.91,6.374,6.374,0,0,1,2.379-2.68,6.476,6.476,0,0,1,3.479-.943,6.238,6.238,0,0,1,4.888,2.092,8.048,8.048,0,0,1,1.866,5.564v.178a8.814,8.814,0,0,1-.827,3.876,6.281,6.281,0,0,1-2.365,2.673,6.55,6.55,0,0,1-3.534.957,6.223,6.223,0,0,1-4.874-2.092,8.007,8.007,0,0,1-1.866-5.537Zm2.543.3a6.329,6.329,0,0,0,1.142,3.951,3.869,3.869,0,0,0,6.118-.021,6.92,6.92,0,0,0,1.135-4.231,6.318,6.318,0,0,0-1.155-3.944,3.673,3.673,0,0,0-3.069-1.511A3.632,3.632,0,0,0,121,15.5,6.869,6.869,0,0,0,119.848,19.768Zm26.592,0a8.858,8.858,0,0,1-1.545,5.441,4.952,4.952,0,0,1-4.184,2.064,5.425,5.425,0,0,1-4.238-1.709v7.123h-2.529V12.207h2.311l.123,1.641a5.21,5.21,0,0,1,4.293-1.914,5.044,5.044,0,0,1,4.218,2.01,8.954,8.954,0,0,1,1.552,5.592Zm-2.529-.287a6.536,6.536,0,0,0-1.066-3.951,3.435,3.435,0,0,0-2.926-1.449,3.718,3.718,0,0,0-3.445,2.037v7.068a3.725,3.725,0,0,0,3.473,2.023,3.419,3.419,0,0,0,2.892-1.442A7.135,7.135,0,0,0,143.91,19.48Zm5.66,6.193a1.584,1.584,0,0,1,.39-1.094,1.485,1.485,0,0,1,1.169-.437,1.529,1.529,0,0,1,1.183.438,1.552,1.552,0,0,1,.4,1.094,1.468,1.468,0,0,1-.4,1.053,1.557,1.557,0,0,1-1.183.424,1.406,1.406,0,0,1-1.559-1.477Zm.014-12.072a1.584,1.584,0,0,1,.39-1.094,1.485,1.485,0,0,1,1.169-.437,1.529,1.529,0,0,1,1.183.438,1.552,1.552,0,0,1,.4,1.094,1.468,1.468,0,0,1-.4,1.053,1.557,1.557,0,0,1-1.183.424,1.406,1.406,0,0,1-1.559-1.477Z" transform="translate(722 184)" fill="#111"/><path d="M14.7,27H1.654V25.182l6.891-7.656A16.37,16.37,0,0,0,10.657,14.7a4.712,4.712,0,0,0,.581-2.249A3.572,3.572,0,0,0,10.295,9.9a3.3,3.3,0,0,0-2.516-1A3.906,3.906,0,0,0,4.847,9.972,4.1,4.1,0,0,0,3.8,12.959H1.271A5.871,5.871,0,0,1,3.042,8.516a6.563,6.563,0,0,1,4.737-1.7,6.307,6.307,0,0,1,4.389,1.456,4.967,4.967,0,0,1,1.613,3.876q0,2.939-3.746,7L4.7,24.936H14.7ZM30.229,8.516,21.984,27H19.332L27.549,9.172H16.775V7.094H30.229Zm3.049,22.449-1.436-.984a6.6,6.6,0,0,0,1.34-3.691V24.006h2.475v1.982a6.227,6.227,0,0,1-.677,2.762A6.466,6.466,0,0,1,33.277,30.965ZM48.521,7.08V9.227h-.465a6.66,6.66,0,0,0-4.7,1.75,7.282,7.282,0,0,0-2.023,4.771,5.4,5.4,0,0,1,4.293-1.8,5.162,5.162,0,0,1,4.149,1.832,7.066,7.066,0,0,1,1.552,4.73,7.044,7.044,0,0,1-1.675,4.922,5.767,5.767,0,0,1-4.491,1.846,5.682,5.682,0,0,1-4.635-2.194,8.7,8.7,0,0,1-1.777-5.653v-.971q0-5.5,2.345-8.4T48.07,7.08ZM45.2,16.049a4.251,4.251,0,0,0-3.91,2.734v.93A6.53,6.53,0,0,0,42.4,23.678a3.319,3.319,0,0,0,2.762,1.5,3.216,3.216,0,0,0,2.687-1.258,5.219,5.219,0,0,0,.978-3.295,5.221,5.221,0,0,0-.991-3.315A3.177,3.177,0,0,0,45.2,16.049Zm8.9-5.127a4.039,4.039,0,0,1,1.142-2.953,4.289,4.289,0,0,1,5.879.007A4.179,4.179,0,0,1,62.248,11v.971a3.987,3.987,0,0,1-1.142,2.946A3.936,3.936,0,0,1,58.2,16.063a4.022,4.022,0,0,1-2.939-1.142A4.071,4.071,0,0,1,54.1,11.879Zm1.887,1.047a2.587,2.587,0,0,0,.6,1.761,2.03,2.03,0,0,0,1.613.692,1.99,1.99,0,0,0,1.565-.671,2.672,2.672,0,0,0,.595-1.836v-1a2.652,2.652,0,0,0-.588-1.768,2.18,2.18,0,0,0-3.2,0,2.735,2.735,0,0,0-.588,1.823Zm7.807,10.15a4.016,4.016,0,0,1,1.142-2.946,4.318,4.318,0,0,1,5.872-.007,4.121,4.121,0,0,1,1.148,3.049v.971a4.016,4.016,0,0,1-1.142,2.946,3.928,3.928,0,0,1-2.919,1.155,4.022,4.022,0,0,1-2.939-1.142A4.071,4.071,0,0,1,63.793,23.1ZM65.68,23.18a2.607,2.607,0,0,0,.6,1.774,2.03,2.03,0,0,0,1.613.692,1.976,1.976,0,0,0,1.572-.678,2.718,2.718,0,0,0,.588-1.843V22.111a2.6,2.6,0,0,0-.595-1.768,2.186,2.186,0,0,0-3.172-.007,2.638,2.638,0,0,0-.608,1.829Zm-6.9,2.316-1.436-.9L67.061,9.035l1.436.9Z" transform="translate(885 185)" fill="#888"/></g><path d="M403.405,305.79l113.632,77.381A210,210,0,0,1,690.6,291.291c.127,0,.25.009.376.009l-.739-137.534C571.192,153.888,465.988,214.178,403.405,305.79Z" transform="translate(-10.604 74.127)" fill="#ffbf00"/><path d="M1080.912,437.961l-136-20.624c-16.467,99.533-103.1,175.695-207.221,175.695-115.84,0-210.081-94.242-210.081-210.083a208.873,208.873,0,0,1,36.3-117.9l-113.36-77.771a345.623,345.623,0,0,0-60.475,195.67c0,191.681,155.936,347.617,347.615,347.617C910.65,730.567,1054.463,603.587,1080.912,437.961Z" transform="translate(-57.693 192.551)" fill="#c02"/><path d="M810.325,556.6a359.439,359.439,0,0,0,4.28-55.221c0-191.676-155.94-347.617-347.615-347.617-.1,0-.2.009-.3.009L467.6,291.3c115.355.571,209.469,94.591,209.469,210.078a221.124,221.124,0,0,1-2.652,34.438Z" transform="translate(213.011 74.119)" fill="#166bd2"/></svg>